<?xml version="1.0" standalone="no"?>
<!DOCTYPE svg PUBLIC "-//W3C//DTD SVG 20010904//EN"
 "http://www.w3.org/TR/2001/REC-SVG-20010904/DTD/svg10.dtd">
<svg version="1.0" xmlns="http://www.w3.org/2000/svg"
 width="672.000000pt" height="246.000000pt" viewBox="0 0 672.000000 246.000000"
 preserveAspectRatio="xMidYMid meet">
<metadata>
Created by potrace 1.16, written by Peter Selinger 2001-2019
</metadata>
<g transform="translate(0.000000,246.000000) scale(0.100000,-0.100000)"
fill="#000000" stroke="none">
<path d="M1235 2101 c-11 -5 -67 -11 -125 -15 -57 -4 -107 -11 -110 -15 -3 -4
-27 -11 -55 -15 -27 -3 -54 -11 -59 -16 -6 -6 -18 -10 -28 -10 -20 0 -94 -34
-155 -70 -41 -25 -153 -133 -153 -148 0 -5 -6 -15 -14 -21 -8 -7 -18 -26 -21
-42 -4 -16 -10 -29 -14 -29 -6 0 -15 -29 -43 -140 -8 -30 -13 -236 -15 -628
l-3 -582 412 2 413 3 0 185 0 185 -210 5 -210 5 -3 310 c-4 380 7 450 80 531
35 38 141 94 179 94 14 0 30 5 36 11 5 5 75 13 157 16 l146 6 0 194 0 193 -92
-1 c-51 0 -102 -4 -113 -8z"/>
<path d="M3856 1635 c-19 -18 -26 -34 -26 -63 0 -52 32 -82 88 -82 35 0 45 5
66 33 15 19 26 39 26 45 0 26 -26 64 -51 78 -41 21 -73 17 -103 -11z"/>
<path d="M5729 1631 c-58 -59 -23 -141 61 -141 87 0 124 93 57 144 -45 34 -81
33 -118 -3z"/>
<path d="M2730 1535 l0 -75 86 0 86 0 -4 -162 c-3 -143 -5 -166 -23 -189 -27
-36 -90 -59 -163 -59 l-62 0 0 -76 0 -77 108 6 c91 4 116 10 157 32 67 35 91
59 120 121 25 52 25 57 25 303 l0 251 -165 0 -165 0 0 -75z"/>
<path d="M4610 1535 l0 -74 83 -3 82 -3 3 -150 c2 -136 0 -153 -18 -183 -28
-45 -89 -72 -167 -72 l-63 0 0 -76 0 -77 103 6 c152 8 231 49 278 144 22 46
24 60 27 306 l4 257 -166 0 -166 0 0 -75z"/>
<path d="M4166 1534 c-3 -9 -6 -33 -6 -55 0 -38 -1 -39 -35 -39 l-35 0 0 -70
0 -70 35 0 35 0 1 -112 c0 -62 4 -134 8 -160 10 -60 48 -116 83 -124 15 -3 30
-10 33 -15 9 -14 131 -11 142 4 5 6 8 33 5 60 -3 37 -8 47 -22 47 -35 0 -87
29 -94 52 -3 13 -6 73 -6 135 l0 112 58 3 57 3 3 68 3 67 -61 0 -60 0 0 55 0
55 -69 0 c-54 0 -70 -4 -75 -16z"/>
<path d="M6047 1543 c-4 -3 -7 -28 -7 -54 l0 -48 -37 -3 -38 -3 -1 -55 c0 -74
3 -80 42 -80 l34 0 0 -139 c0 -149 8 -184 54 -234 14 -15 33 -27 44 -27 10 0
23 -5 29 -11 5 -5 38 -9 74 -7 l64 3 3 63 c3 62 3 63 -21 57 -15 -4 -37 1 -58
13 l-34 19 -3 131 -3 132 56 0 55 0 0 70 0 70 -55 0 -55 0 0 55 0 55 -68 0
c-38 0 -72 -3 -75 -7z"/>
<path d="M3350 1444 c-86 -17 -161 -86 -186 -172 -34 -115 3 -267 79 -328 39
-30 125 -63 169 -64 30 0 112 33 122 49 11 18 26 13 26 -9 0 -18 7 -20 75 -20
l75 0 0 270 0 270 -75 0 c-73 0 -75 -1 -75 -25 0 -14 -4 -25 -10 -25 -5 0 -10
3 -10 8 0 27 -126 58 -190 46z m177 -176 c22 -23 28 -40 31 -92 4 -63 4 -64
-37 -105 -35 -35 -47 -41 -84 -41 -65 0 -94 18 -124 78 -24 49 -25 55 -13 99
30 105 153 138 227 61z"/>
<path d="M5218 1443 c-21 -2 -38 -8 -38 -14 0 -5 -6 -9 -14 -9 -22 0 -74 -48
-104 -94 -22 -35 -27 -55 -30 -138 -4 -87 -2 -101 21 -150 29 -59 49 -85 89
-110 61 -40 178 -63 193 -38 3 6 14 10 24 10 10 0 30 9 44 20 32 25 37 25 37
0 0 -18 7 -20 75 -20 l75 0 0 270 0 270 -75 0 c-73 0 -75 -1 -75 -25 0 -31
-12 -32 -46 -2 -37 33 -80 40 -176 30z m183 -177 c31 -30 45 -78 35 -130 -18
-97 -143 -141 -216 -76 -32 28 -35 36 -38 98 -4 85 17 123 79 144 52 17 95 6
140 -36z"/>
<path d="M3840 1170 l0 -270 75 0 75 0 0 270 0 270 -75 0 -75 0 0 -270z"/>
<path d="M5710 1170 l0 -270 75 0 75 0 0 270 0 270 -75 0 -75 0 0 -270z"/>
</g>
</svg>
